<svg width="180" height="143" viewBox="0 0 180 143" fill="none" xmlns="http://www.w3.org/2000/svg">
<path d="M44.5617 142.422C41.8905 142.422 39.4935 141.937 37.3682 140.962C35.2403 139.982 33.5501 138.54 32.2975 136.633C31.0425 134.72 30.4162 132.408 30.4162 129.694C30.4162 127.809 30.7507 125.76 31.4223 123.545C32.876 118.821 35.0794 115.406 38.0322 113.307C40.9901 111.207 44.1492 110.157 47.5095 110.157C49.3205 110.157 50.9226 110.427 52.3186 110.967C53.712 111.502 54.9973 112.272 56.1719 113.277L57.4597 112.287C58.3173 111.627 59.0392 111.172 59.6227 110.917C60.2113 110.665 60.8728 110.537 61.6047 110.537C62.3945 110.537 63.0283 110.712 63.5062 111.057C63.9816 111.405 64.2205 111.912 64.2205 112.577C64.2205 112.924 64.1551 113.272 64.0294 113.617L61.3633 120.995C61.0816 121.85 60.7395 122.45 60.3371 122.795C59.9396 123.143 59.3461 123.315 58.5563 123.315C57.7313 123.315 57.0572 123.025 56.5341 122.445C56.0109 121.86 55.4123 120.855 54.7432 119.436C53.9837 117.951 53.3674 116.971 52.892 116.496C52.4142 116.024 51.7174 115.786 50.7994 115.786C49.4965 115.786 48.2439 116.584 47.0367 118.176C45.8294 119.771 44.7327 122.16 43.7468 125.345C42.9218 128.024 42.5093 130.264 42.5093 132.063C42.5093 133.643 42.8111 134.82 43.4148 135.593C44.0184 136.368 44.8258 136.753 45.8394 136.753C47.3334 136.753 48.5659 136.423 49.5317 135.763C50.5026 135.098 51.4961 134.193 52.5097 133.053C53.1461 132.361 53.6617 131.851 54.0591 131.524C54.454 131.191 54.874 131.024 55.3167 131.024C55.8851 131.024 56.4888 131.309 57.1277 131.873C57.764 132.441 58.0658 133.011 58.0331 133.583C58.0658 134.278 57.5024 135.35 56.3429 136.803C55.1809 138.25 53.5787 139.55 51.5338 140.702C49.4865 141.849 47.1624 142.422 44.5617 142.422Z" fill="#FF7817"/>
<path d="M90.12 135.613C90.0521 135.74 90.0194 135.93 90.0194 136.183C90.0194 136.403 90.0723 136.578 90.1804 136.703C90.2936 136.83 90.447 136.893 90.6432 136.893C91.0255 136.893 91.35 136.728 91.6191 136.393C91.8857 136.06 92.0668 135.893 92.1624 135.893C92.3234 135.893 92.4491 135.998 92.5447 136.203C92.6378 136.41 92.6856 136.653 92.6856 136.932C92.7183 137.852 92.4164 138.747 91.7801 139.612C91.1488 140.479 90.2207 141.189 88.9932 141.742C87.7709 142.294 86.307 142.571 84.5967 142.571C82.4965 142.571 80.8264 142.092 79.5864 141.132C78.3514 140.167 77.7201 138.88 77.6949 137.272C77.6949 136.108 77.9792 134.798 78.5501 133.343L81.1659 126.524C81.3269 126.119 81.4074 125.79 81.4074 125.535C81.4074 125.13 81.269 124.81 80.9949 124.575C80.7258 124.335 80.4038 124.215 80.029 124.215C79.4254 124.215 78.8117 124.492 78.1879 125.045C77.5692 125.592 77.0712 126.482 76.6889 127.714V127.614L73.6907 137.222C73.5951 137.602 73.5499 137.932 73.5499 138.212C73.5499 138.627 73.6253 138.952 73.7813 139.192C73.9423 139.427 74.1661 139.652 74.4554 139.872C74.6767 140.092 74.8326 140.277 74.9282 140.422C75.0213 140.562 75.0389 140.742 74.9785 140.962C74.8175 141.369 74.4981 141.669 74.0227 141.862C73.5449 142.049 72.818 142.142 71.8395 142.142H60.9839C60.1589 142.142 59.5553 142.009 59.173 141.742C58.7907 141.477 58.6649 141.119 58.7907 140.672C58.9189 140.299 59.2509 139.969 59.7867 139.682C60.2646 139.43 60.6595 139.13 60.9739 138.782C61.2958 138.437 61.5674 137.882 61.7888 137.122L69.0225 113.517C69.1231 113.237 69.1734 113.002 69.1734 112.807C69.1734 112.462 69.0854 112.177 68.9118 111.957C68.7358 111.737 68.5044 111.517 68.2176 111.297C67.9007 111.045 67.6693 110.825 67.5235 110.637C67.3826 110.445 67.3574 110.192 67.453 109.877C67.6467 109.153 68.6452 108.523 70.4511 107.988C72.2621 107.448 74.1535 107.178 76.1255 107.178C77.9616 107.178 79.3172 107.525 80.19 108.218C81.0603 108.913 81.4979 109.857 81.4979 111.057C81.4979 111.752 81.3873 112.432 81.1659 113.097L78.6004 121.415C79.8329 119.811 81.1408 118.693 82.5241 118.066C83.905 117.434 85.404 117.116 87.0213 117.116C88.958 117.116 90.5225 117.701 91.7097 118.866C92.9019 120.033 93.5005 121.545 93.5005 123.405C93.5005 124.385 93.3395 125.35 93.0176 126.294L90.12 135.613Z" fill="#FF7817"/>
<path d="M110.87 116.876C114.9 116.876 117.822 117.516 119.633 118.796C121.444 120.07 122.35 121.703 122.35 123.695C122.35 124.29 122.284 124.84 122.158 125.344C121.681 127.424 120.353 128.914 118.174 129.814C116.001 130.714 113.438 131.163 110.488 131.163C108.999 131.163 107.603 131.071 106.303 130.883C106.267 132.523 106.71 133.678 107.631 134.343C108.556 135.003 109.844 135.333 111.494 135.333C112.251 135.333 112.978 135.248 113.677 135.073C114.374 134.9 115.262 134.638 116.343 134.283C117.234 133.97 117.837 133.813 118.154 133.813C118.501 133.813 118.677 134.02 118.677 134.433C118.71 135.533 118.298 136.692 117.44 137.912C116.58 139.127 115.31 140.159 113.627 141.012C111.949 141.859 109.919 142.281 107.54 142.281C104.019 142.281 101.131 141.399 98.8777 139.632C96.624 137.867 95.4972 135.298 95.4972 131.923C95.4972 130.978 95.623 129.874 95.8796 128.614C96.6693 124.735 98.4073 121.81 101.091 119.836C103.772 117.863 107.032 116.876 110.87 116.876ZM106.635 128.044C106.76 128.079 106.936 128.094 107.158 128.094C108.491 128.094 109.507 127.482 110.206 126.254C110.903 125.022 111.235 123.645 111.202 122.125C111.175 121.245 110.923 120.805 110.448 120.805C110.098 120.805 109.686 121.083 109.21 121.635C108.732 122.183 108.264 123.01 107.802 124.115C107.339 125.222 106.949 126.532 106.635 128.044Z" fill="#FF7817"/>
<path d="M140.818 107.178C144.211 107.178 146.757 107.693 148.455 108.718C150.15 109.745 151 110.997 151 112.477C151 113.677 150.499 114.602 149.501 115.246C148.5 115.894 147.192 116.216 145.577 116.216C144.081 116.216 142.921 115.854 142.096 115.127C141.271 114.402 140.859 113.502 140.859 112.427C140.859 111.767 141.065 111.075 141.482 110.347C140.529 110.347 139.734 110.577 139.098 111.037C138.467 111.492 137.976 112.272 137.629 113.377C137.433 114.072 137.337 114.717 137.337 115.316C137.337 116.076 137.471 116.671 137.74 117.096C138.014 117.516 138.404 117.726 138.907 117.726H141.724C143.374 117.726 144.199 118.233 144.199 119.246C144.199 119.373 144.164 119.561 144.098 119.806C143.91 120.506 143.52 121.03 142.931 121.375C142.348 121.723 141.467 121.895 140.295 121.895H138.867L134.148 137.222C134.053 137.602 134.007 137.932 134.007 138.212C134.007 138.627 134.083 138.952 134.239 139.192C134.4 139.427 134.624 139.652 134.913 139.872C135.134 140.092 135.29 140.277 135.386 140.422C135.479 140.562 135.496 140.742 135.436 140.962C135.275 141.369 134.956 141.669 134.48 141.862C134.002 142.049 133.275 142.142 132.297 142.142H121.441C120.616 142.142 120.013 142.009 119.63 141.742C119.248 141.477 119.122 141.119 119.248 140.672C119.376 140.299 119.708 139.969 120.244 139.682C120.722 139.43 121.117 139.13 121.431 138.782C121.753 138.437 122.025 137.882 122.246 137.122L125.959 125.015C126.12 124.542 126.2 124.052 126.2 123.545C126.2 122.92 126.062 122.425 125.788 122.065C125.518 121.7 125.116 121.295 124.58 120.855C124.231 120.571 123.969 120.323 123.796 120.116C123.619 119.911 123.534 119.666 123.534 119.386C123.499 118.786 123.71 118.361 124.168 118.106C124.631 117.854 125.511 117.726 126.814 117.726H128.011C127.79 116.941 127.679 116.154 127.679 115.366C127.679 114.574 127.82 113.754 128.102 112.907C128.705 111.295 129.998 109.937 131.985 108.838C133.97 107.733 136.915 107.178 140.818 107.178Z" fill="#FF7817"/>
<path d="M41.3638 139.244C38.6926 139.244 36.2957 138.759 34.1703 137.784C32.0424 136.804 30.3522 135.362 29.0996 133.455C27.8446 131.543 27.2183 129.231 27.2183 126.516C27.2183 124.631 27.5528 122.582 28.2244 120.367C29.6781 115.643 31.8815 112.229 34.8343 110.129C37.7922 108.03 40.9513 106.98 44.3116 106.98C46.1226 106.98 47.7247 107.25 49.1207 107.79C50.5141 108.324 51.7994 109.094 52.974 110.099L54.2618 109.109C55.1194 108.449 55.8413 107.995 56.4248 107.74C57.0134 107.487 57.6749 107.36 58.4068 107.36C59.1966 107.36 59.8304 107.535 60.3083 107.88C60.7837 108.227 61.0226 108.734 61.0226 109.399C61.0226 109.747 60.9572 110.094 60.8315 110.439L58.1654 117.818C57.8837 118.673 57.5416 119.272 57.1392 119.617C56.7417 119.965 56.1482 120.137 55.3584 120.137C54.5334 120.137 53.8593 119.847 53.3362 119.267C52.813 118.683 52.2144 117.678 51.5453 116.258C50.7857 114.773 50.1695 113.793 49.6941 113.319C49.2163 112.846 48.5195 112.609 47.6015 112.609C46.2986 112.609 45.046 113.406 43.8387 114.998C42.6315 116.593 41.5348 118.983 40.5489 122.167C39.7239 124.846 39.3114 127.086 39.3114 128.886C39.3114 130.465 39.6132 131.643 40.2169 132.415C40.8205 133.19 41.6279 133.575 42.6415 133.575C44.1355 133.575 45.368 133.245 46.3338 132.585C47.3047 131.92 48.2982 131.015 49.3118 129.876C49.9482 129.183 50.4638 128.673 50.8612 128.346C51.2561 128.013 51.6761 127.846 52.1188 127.846C52.6872 127.846 53.2909 128.131 53.9297 128.696C54.5661 129.263 54.8679 129.833 54.8352 130.405C54.8679 131.1 54.3045 132.173 53.145 133.625C51.983 135.072 50.3808 136.372 48.3359 137.524C46.2886 138.671 43.9645 139.244 41.3638 139.244Z" fill="#F8F8F8"/>
<path d="M86.9221 132.435C86.8542 132.562 86.8215 132.752 86.8215 133.005C86.8215 133.225 86.8744 133.4 86.9825 133.525C87.0957 133.652 87.2491 133.715 87.4453 133.715C87.8276 133.715 88.1521 133.55 88.4212 133.215C88.6878 132.882 88.8689 132.715 88.9645 132.715C89.1255 132.715 89.2512 132.82 89.3468 133.025C89.4399 133.232 89.4877 133.475 89.4877 133.755C89.5204 134.674 89.2185 135.569 88.5822 136.434C87.9509 137.301 87.0228 138.011 85.7953 138.564C84.573 139.116 83.1091 139.393 81.3988 139.393C79.2986 139.393 77.6285 138.914 76.3885 137.954C75.1535 136.989 74.5222 135.702 74.497 134.094C74.497 132.93 74.7813 131.62 75.3522 130.165L77.968 123.346C78.129 122.942 78.2095 122.612 78.2095 122.357C78.2095 121.952 78.0711 121.632 77.797 121.397C77.5279 121.157 77.2059 121.037 76.8312 121.037C76.2275 121.037 75.6138 121.314 74.99 121.867C74.3713 122.414 73.8733 123.304 73.491 124.536V124.436L70.4928 134.044C70.3973 134.424 70.352 134.754 70.352 135.034C70.352 135.449 70.4274 135.774 70.5834 136.014C70.7444 136.249 70.9682 136.474 71.2575 136.694C71.4788 136.914 71.6347 137.099 71.7303 137.244C71.8234 137.384 71.841 137.564 71.7806 137.784C71.6196 138.191 71.3002 138.491 70.8248 138.684C70.3469 138.871 69.6201 138.964 68.6416 138.964H57.786C56.961 138.964 56.3574 138.831 55.9751 138.564C55.5928 138.299 55.467 137.941 55.5928 137.494C55.721 137.121 56.053 136.791 56.5888 136.504C57.0667 136.252 57.4616 135.952 57.776 135.604C58.0979 135.259 58.3695 134.704 58.5909 133.944L65.8246 110.339C65.9252 110.059 65.9755 109.824 65.9755 109.629C65.9755 109.284 65.8875 108.999 65.7139 108.779C65.5379 108.559 65.3065 108.339 65.0197 108.119C64.7028 107.867 64.4714 107.647 64.3255 107.459C64.1847 107.267 64.1595 107.014 64.2551 106.7C64.4488 105.975 65.4473 105.345 67.2533 104.81C69.0642 104.27 70.9556 104 72.9276 104C74.7636 104 76.1193 104.347 76.9921 105.04C77.8624 105.735 78.3 106.68 78.3 107.879C78.3 108.574 78.1894 109.254 77.968 109.919L75.4025 118.237C76.635 116.633 77.9429 115.515 79.3262 114.888C80.7071 114.256 82.2061 113.938 83.8234 113.938C85.7601 113.938 87.3246 114.523 88.5118 115.688C89.704 116.855 90.3026 118.367 90.3026 120.227C90.3026 121.207 90.1416 122.172 89.8197 123.116L86.9221 132.435Z" fill="#F8F8F8"/>
<path d="M107.672 113.698C111.702 113.698 114.624 114.338 116.435 115.618C118.246 116.892 119.152 118.525 119.152 120.517C119.152 121.112 119.086 121.662 118.961 122.167C118.483 124.246 117.155 125.736 114.976 126.636C112.803 127.536 110.24 127.985 107.29 127.985C105.801 127.985 104.405 127.893 103.105 127.706C103.069 129.345 103.512 130.5 104.433 131.165C105.358 131.825 106.646 132.155 108.296 132.155C109.053 132.155 109.78 132.07 110.479 131.895C111.176 131.722 112.064 131.46 113.145 131.105C114.036 130.792 114.639 130.635 114.956 130.635C115.303 130.635 115.479 130.842 115.479 131.255C115.512 132.355 115.1 133.514 114.242 134.734C113.382 135.949 112.112 136.981 110.429 137.834C108.751 138.681 106.722 139.103 104.342 139.103C100.821 139.103 97.9334 138.221 95.6798 136.454C93.4262 134.689 92.2993 132.12 92.2993 128.745C92.2993 127.8 92.4251 126.696 92.6816 125.436C93.4714 121.557 95.2094 118.632 97.8932 116.658C100.574 114.685 103.834 113.698 107.672 113.698ZM103.437 124.866C103.562 124.901 103.738 124.916 103.96 124.916C105.293 124.916 106.309 124.304 107.008 123.076C107.705 121.844 108.037 120.467 108.004 118.947C107.977 118.067 107.725 117.627 107.25 117.627C106.9 117.627 106.488 117.905 106.012 118.457C105.534 119.005 105.067 119.832 104.604 120.937C104.141 122.044 103.751 123.354 103.437 124.866Z" fill="#F8F8F8"/>
<path d="M137.621 104C141.014 104 143.559 104.515 145.257 105.54C146.952 106.567 147.802 107.819 147.802 109.299C147.802 110.499 147.302 111.424 146.303 112.069C145.302 112.716 143.994 113.038 142.379 113.038C140.883 113.038 139.723 112.676 138.898 111.949C138.073 111.224 137.661 110.324 137.661 109.249C137.661 108.589 137.867 107.897 138.285 107.169C137.331 107.169 136.536 107.399 135.9 107.859C135.269 108.314 134.778 109.094 134.431 110.199C134.235 110.894 134.14 111.539 134.14 112.139C134.14 112.898 134.273 113.493 134.542 113.918C134.816 114.338 135.206 114.548 135.709 114.548H138.526C140.176 114.548 141.001 115.055 141.001 116.068C141.001 116.195 140.966 116.383 140.9 116.628C140.712 117.328 140.322 117.852 139.733 118.197C139.15 118.545 138.269 118.717 137.097 118.717H135.669L130.95 134.044C130.855 134.424 130.809 134.754 130.809 135.034C130.809 135.449 130.885 135.774 131.041 136.014C131.202 136.249 131.426 136.474 131.715 136.694C131.936 136.914 132.092 137.099 132.188 137.244C132.281 137.384 132.298 137.564 132.238 137.784C132.077 138.191 131.758 138.491 131.282 138.684C130.804 138.871 130.077 138.964 129.099 138.964H118.243C117.418 138.964 116.815 138.831 116.432 138.564C116.05 138.299 115.924 137.941 116.05 137.494C116.178 137.121 116.51 136.791 117.046 136.504C117.524 136.252 117.919 135.952 118.233 135.604C118.555 135.259 118.827 134.704 119.048 133.944L122.761 121.837C122.922 121.364 123.002 120.874 123.002 120.367C123.002 119.742 122.864 119.247 122.59 118.887C122.321 118.522 121.918 118.117 121.382 117.677C121.033 117.393 120.771 117.145 120.598 116.938C120.422 116.733 120.336 116.488 120.336 116.208C120.301 115.608 120.512 115.183 120.97 114.928C121.433 114.676 122.313 114.548 123.616 114.548H124.813C124.592 113.763 124.481 112.976 124.481 112.188C124.481 111.396 124.622 110.576 124.904 109.729C125.507 108.117 126.8 106.759 128.787 105.66C130.772 104.555 133.717 104 137.621 104Z" fill="#F8F8F8"/>
<path d="M30.0506 3.17797C33.4109 3.17797 36.0016 3.90534 37.8276 5.35757C39.6512 6.81231 40.5642 8.73445 40.5642 11.1265C40.5642 12.0738 40.4233 13.0712 40.1416 14.116C39.2487 17.2704 37.4906 19.6024 34.8698 21.1147C32.254 22.6294 28.9465 23.3843 24.9498 23.3843H20.0502L18.4304 29.1132C18.3625 29.3007 18.3298 29.5506 18.3298 29.8631C18.3298 30.3105 18.4329 30.6779 18.6417 30.9629C18.8479 31.2428 19.1598 31.5727 19.5773 31.9527C19.9244 32.2676 20.1608 32.5026 20.2816 32.6625C20.4073 32.8175 20.4727 33.0025 20.4727 33.2224C20.4727 33.7623 20.2162 34.1423 19.7081 34.3622C19.2051 34.5822 18.4606 34.6922 17.4746 34.6922H5.53242C4.70743 34.6922 4.0912 34.5422 3.68122 34.2422C3.26622 33.9423 3.11782 33.5274 3.23855 32.9925C3.30646 32.7075 3.42719 32.4776 3.60074 32.3026C3.7768 32.1301 4.03838 31.9327 4.38548 31.7127C4.92122 31.4003 5.34629 31.0703 5.66321 30.7229C5.98515 30.3705 6.23919 29.8331 6.42783 29.1132L12.243 8.71695C12.3687 8.31203 12.4341 7.9171 12.4341 7.53717C12.4341 7.19224 12.3763 6.90229 12.2631 6.66733C12.155 6.42738 12.004 6.14743 11.8104 5.82749C11.5287 5.42256 11.3878 5.09262 11.3878 4.83767C11.3878 4.74519 11.418 4.57272 11.4784 4.31776C11.6041 3.91284 11.8833 3.62289 12.3134 3.44793C12.741 3.26796 13.4 3.17797 14.2853 3.17797H30.0506ZM28.8132 13.2561C29.1603 12.0913 29.3363 11.0665 29.3363 10.1867C29.3363 8.35452 28.4761 7.43719 26.7607 7.43719H24.6178L21.2374 19.125H23.33C24.6631 19.125 25.7496 18.7101 26.5897 17.8753C27.4348 17.0354 28.1743 15.4957 28.8132 13.2561Z" fill="#FF7817"/>
<path d="M53.8919 9.66665C57.5465 9.66665 60.4666 10.3365 62.6549 11.6763C64.8481 13.016 65.9448 15.0607 65.9448 17.8052C65.9448 18.845 65.7536 20.0297 65.3713 21.3545L63.4195 27.8833C63.3843 28.0108 63.3692 28.1682 63.3692 28.3532C63.3692 28.8606 63.5754 29.1131 63.993 29.1131C64.3677 29.1131 64.6897 28.9481 64.9588 28.6132C65.2329 28.2807 65.4166 28.1133 65.5121 28.1133C65.6731 28.1133 65.8064 28.2282 65.9146 28.4532C66.0278 28.6731 66.0856 28.9231 66.0856 29.203C66.1108 30.0579 65.7838 30.9277 65.0996 31.8126C64.4205 32.6924 63.51 33.4173 62.3631 33.9822C61.2212 34.5496 59.9711 34.832 58.6104 34.832C56.9604 34.832 55.5469 34.5321 54.3748 33.9322C53.2002 33.3323 52.3878 32.45 51.9401 31.2827C50.9868 32.4225 49.86 33.2998 48.5597 33.9122C47.2568 34.5271 45.8634 34.832 44.3744 34.832C42.6892 34.832 41.2756 34.5096 40.1287 33.8622C38.9868 33.2173 38.1392 32.3825 37.5833 31.3626C37.0325 30.3378 36.7583 29.253 36.7583 28.1133C36.7583 27.6133 36.8061 27.1284 36.8992 26.6535C37.4072 24.4739 38.5114 22.8342 40.2092 21.7344C41.9044 20.6296 43.9266 20.0747 46.2758 20.0747C48.9118 20.0747 51.4999 20.4847 54.0428 21.3045L55.23 18.1851C55.6374 16.8603 55.8437 15.833 55.8437 15.1056C55.816 14.3458 55.5645 13.7809 55.0891 13.406C54.6112 13.026 53.8818 12.8361 52.8959 12.8361C53.082 13.3435 53.1776 13.8634 53.1776 14.3958C53.1776 15.5631 52.7299 16.5729 51.8395 17.4252C50.9541 18.2801 49.6865 18.705 48.0365 18.705C46.4796 18.705 45.2647 18.365 44.3945 17.6852C43.5217 17.0053 43.0866 16.163 43.0866 15.1556C43.0866 13.5759 43.9744 12.2662 45.7527 11.2264C47.5284 10.1866 50.2423 9.66665 53.8919 9.66665ZM51.2258 24.004C50.3404 24.004 49.6186 24.3439 49.0627 25.0238C48.5043 25.6987 48.2276 26.4286 48.2276 27.2134C48.2276 27.7208 48.3433 28.1332 48.5798 28.4532C48.8212 28.7681 49.1633 28.9231 49.606 28.9231C50.021 28.9231 50.4737 28.7581 50.9642 28.4232C51.4597 28.0908 51.8194 27.5933 52.0407 26.9335L53.0367 24.144C52.4985 24.0515 51.8948 24.004 51.2258 24.004Z" fill="#FF7817"/>
<path d="M97.5005 28.1632C97.4401 28.2907 97.4099 28.4807 97.4099 28.7331C97.4099 28.9531 97.4627 29.1281 97.5709 29.253C97.6841 29.3805 97.835 29.443 98.0236 29.443C98.4059 29.443 98.7304 29.278 98.9995 28.9431C99.2662 28.6107 99.4523 28.4432 99.5529 28.4432C99.7063 28.4432 99.8296 28.5482 99.9251 28.7531C100.026 28.9606 100.076 29.2031 100.076 29.483C100.101 30.4028 99.7969 31.2977 99.1605 32.1625C98.5292 33.0298 97.6036 33.7397 96.3837 34.2921C95.1613 34.8445 93.6925 35.122 91.9771 35.122C89.8844 35.122 88.2169 34.642 86.9769 33.6822C85.7419 32.7174 85.1081 31.4301 85.0754 29.8229C85.0754 28.6581 85.3596 27.3484 85.9305 25.8937L88.5463 19.0749C88.7073 18.67 88.7878 18.3401 88.7878 18.0851C88.7878 17.6802 88.652 17.3602 88.3854 17.1253C88.1162 16.8853 87.7918 16.7653 87.4095 16.7653C86.7102 16.7653 86.0437 17.0903 85.4074 17.7352C84.7761 18.3825 84.3158 19.1799 84.029 20.1247L81.0812 29.7729C80.9529 30.1204 80.8901 30.4503 80.8901 30.7628C80.8901 31.1427 80.9655 31.4526 81.1215 31.6926C81.2824 31.9275 81.5063 32.17 81.7955 32.4225C82.0169 32.6099 82.1728 32.7824 82.2684 32.9424C82.3615 33.1023 82.3791 33.2923 82.3187 33.5123C82.1904 33.9197 81.8886 34.2196 81.4132 34.4121C80.9353 34.5996 80.1883 34.692 79.1697 34.692H68.314C67.489 34.692 66.8955 34.5596 66.5333 34.2921C66.1711 34.0272 66.0378 33.6697 66.1308 33.2223C66.2591 32.8499 66.5911 32.5199 67.1269 32.2325C67.6048 31.98 67.9996 31.6801 68.314 31.3327C68.636 30.9877 68.9076 30.4328 69.129 29.673L73.3646 16.0055C73.4249 15.8455 73.4551 15.6256 73.4551 15.3456C73.4551 15.0007 73.3847 14.7332 73.2438 14.5458C73.103 14.3533 72.8741 14.1133 72.5597 13.8259C72.2378 13.5734 72.0114 13.3535 71.8856 13.166C71.7574 12.981 71.7448 12.7261 71.8454 12.4061C72.0315 11.6813 73.0275 11.0439 74.8335 10.4965C76.6444 9.9441 78.5358 9.66665 80.5078 9.66665C82.0898 9.66665 83.3399 10.1016 84.2604 10.9664C85.186 11.8338 85.601 13.041 85.508 14.5857C86.8083 12.7261 88.1867 11.4438 89.643 10.7365C91.1043 10.0241 92.6939 9.66665 94.4118 9.66665C96.3435 9.66665 97.9029 10.2515 99.0901 11.4163C100.282 12.5836 100.881 14.0958 100.881 15.9555C100.881 16.9353 100.722 17.9001 100.408 18.845L97.5005 28.1632Z" fill="#FF7817"/>
<path d="M123.396 10.2766C123.999 10.2766 124.465 10.4041 124.794 10.6565C125.129 10.9115 125.297 11.2564 125.297 11.6963C125.297 11.8238 125.267 12.0438 125.207 12.3562C124.797 13.751 123.843 14.4458 122.349 14.4458H119.593L116.021 26.1337C115.86 26.6011 115.78 27.0885 115.78 27.5934C115.78 28.1608 115.935 28.5582 116.252 28.7832C116.574 29.0032 117.02 29.1131 117.59 29.1131C118.099 29.1131 118.732 29.0506 119.492 28.9232C119.874 28.8307 120.209 28.7832 120.498 28.7832C120.719 28.7832 120.883 28.8532 120.991 28.9932C121.104 29.1331 121.162 29.3131 121.162 29.5331C121.195 30.1679 120.724 30.9328 119.754 31.8326C118.788 32.7325 117.48 33.5073 115.83 34.1522C114.18 34.7971 112.354 35.122 110.357 35.122C108.196 35.122 106.466 34.6321 105.165 33.6523C103.862 32.6725 103.214 31.3327 103.214 29.633C103.214 28.8407 103.339 28.0833 103.596 27.3635L106.644 17.9952C106.798 17.4553 106.876 17.0304 106.876 16.7154C106.876 16.083 106.725 15.5456 106.423 15.1057C106.121 14.6658 105.701 14.2109 105.165 13.736C104.687 13.2911 104.353 12.9211 104.159 12.6262C103.971 12.3262 103.923 11.9713 104.018 11.5564C104.144 11.1514 104.413 10.8365 104.823 10.6165C105.238 10.3916 105.892 10.2766 106.785 10.2766H109.451L112.449 7.29716C113.496 6.25735 114.454 5.53498 115.327 5.12756C116.197 4.71513 117.331 4.50767 118.727 4.50767C120.732 4.50767 121.736 5.26503 121.736 6.77725C121.736 7.25217 121.67 7.69458 121.544 8.10701L120.87 10.2766H123.396Z" fill="#FF7817"/>
<path d="M145.958 9.66665C147.734 9.66665 149.152 10.2041 150.214 11.2764C151.28 12.3512 151.813 13.6734 151.813 15.2456C151.813 15.8455 151.753 16.4004 151.632 16.9053C151.31 18.2001 150.702 19.1924 149.811 19.8848C148.926 20.5796 147.865 20.9246 146.632 20.9246C145.425 20.9246 144.509 20.6421 143.885 20.0747C143.267 19.5098 142.721 18.7525 142.246 17.8052C141.989 17.2653 141.753 16.8728 141.531 16.6254C141.31 16.3729 141.058 16.2454 140.777 16.2454C140.455 16.2454 140.173 16.3729 139.932 16.6254C139.695 16.8728 139.484 17.3127 139.298 17.9451L135.636 29.7729C135.568 29.9329 135.535 30.1704 135.535 30.4828C135.535 30.8902 135.651 31.2302 135.887 31.5026C136.129 31.7701 136.456 32.03 136.873 32.2825C137.248 32.5374 137.499 32.7424 137.628 32.9024C137.753 33.0573 137.804 33.2598 137.779 33.5123C137.711 33.9197 137.479 34.2196 137.084 34.4121C136.687 34.5996 136.013 34.692 135.062 34.692H122.868C122.043 34.692 121.45 34.5596 121.088 34.2921C120.725 34.0272 120.592 33.6697 120.685 33.2223C120.814 32.8499 121.146 32.5199 121.681 32.2325C122.159 31.98 122.554 31.6801 122.868 31.3327C123.19 30.9877 123.462 30.4328 123.683 29.673L127.919 16.0055C127.979 15.8455 128.01 15.6256 128.01 15.3456C128.01 15.0007 127.939 14.7332 127.798 14.5458C127.657 14.3533 127.429 14.1133 127.114 13.8259C126.792 13.5734 126.566 13.3535 126.44 13.166C126.312 12.981 126.299 12.7261 126.4 12.4061C126.586 11.6813 127.582 11.0439 129.388 10.4965C131.199 9.9441 133.09 9.66665 135.062 9.66665C136.363 9.66665 137.439 9.9616 138.292 10.5465C139.149 11.1264 139.705 11.9537 139.962 13.026C141.483 10.7864 143.483 9.66665 145.958 9.66665Z" fill="#FF7817"/>
<path d="M175.382 9.6666C176.775 9.6666 177.892 10.2265 178.732 11.3463C179.577 12.4661 180 13.9858 180 15.9054C180 17.5801 179.698 19.3798 179.095 21.3045C177.92 25.1837 176.039 28.8431 173.45 32.2824C170.867 35.7143 167.899 38.4713 164.547 40.5509C161.199 42.6355 157.859 43.6803 154.526 43.6803C152.876 43.6803 151.452 43.3954 150.26 42.8305C149.073 42.2631 148.173 41.5057 147.554 40.5609C146.938 39.6136 146.628 38.6038 146.628 37.5315C146.628 37.0565 146.706 36.5366 146.86 35.9718C147.149 35.0844 147.629 34.407 148.298 33.9321C148.962 33.4597 149.755 33.2223 150.673 33.2223C152.134 33.2223 153.331 33.7197 154.264 34.712C155.203 35.7043 155.799 37.0715 156.055 38.8112C158.088 38.7112 159.959 37.8414 161.669 36.2017C160.052 35.9218 158.855 35.3819 158.077 34.582C157.298 33.7772 156.765 32.5199 156.478 30.8127L154.576 19.2248C154.481 18.6249 154.347 18.21 154.174 17.9751C153.998 17.7351 153.766 17.6151 153.48 17.6151C153.258 17.6151 152.997 17.7251 152.695 17.9451C152.393 18.165 152.177 18.275 152.051 18.275C151.794 18.275 151.669 18.0101 151.669 17.4752C151.669 17.0302 151.749 16.5553 151.91 16.0554C152.479 14.2558 153.543 12.7335 155.099 11.4863C156.654 10.2415 158.465 9.61661 160.532 9.61661C162.557 9.61661 164.054 10.2165 165.019 11.4163C165.99 12.6161 166.622 14.4632 166.911 16.9553L168.34 27.3633C168.433 28.1507 168.717 28.5431 169.195 28.5431C169.763 28.5431 170.427 28.0307 171.187 27.0034C171.951 25.9786 172.698 24.5189 173.43 22.6242C172.477 21.7794 171.745 20.802 171.237 19.6947C170.734 18.59 170.482 17.4052 170.482 16.1454C170.482 15.1656 170.606 14.2832 170.855 13.4959C171.237 12.2361 171.833 11.2838 172.646 10.6364C173.455 9.99154 174.368 9.6666 175.382 9.6666Z" fill="#FF7817"/>
<path d="M26.8527 0C30.213 0 32.8037 0.727366 34.6297 2.1796C36.4533 3.63433 37.3663 5.55648 37.3663 7.94853C37.3663 8.89586 37.2254 9.89318 36.9437 10.938C36.0508 14.0924 34.2927 16.4245 31.6719 17.9367C29.0561 19.4514 25.7486 20.2063 21.7519 20.2063H16.8523L15.2325 25.9352C15.1646 26.1227 15.1319 26.3726 15.1319 26.6851C15.1319 27.1325 15.235 27.4999 15.4438 27.7849C15.65 28.0648 15.9619 28.3948 16.3794 28.7747C16.7265 29.0896 16.9629 29.3246 17.0837 29.4846C17.2094 29.6395 17.2748 29.8245 17.2748 30.0445C17.2748 30.5844 17.0183 30.9643 16.5102 31.1843C16.0072 31.4042 15.2627 31.5142 14.2767 31.5142H2.33451C1.50953 31.5142 0.893303 31.3642 0.483324 31.0643C0.0683152 30.7643 -0.0800821 30.3494 0.0406478 29.8145C0.108558 29.5296 0.229288 29.2996 0.402837 29.1246C0.578902 28.9522 0.840483 28.7547 1.18758 28.5347C1.72332 28.2223 2.14839 27.8924 2.46531 27.5449C2.78725 27.1925 3.04129 26.6551 3.22993 25.9352L9.04508 5.53898C9.17084 5.13405 9.23624 4.73913 9.23624 4.3592C9.23624 4.01426 9.17839 3.72431 9.0652 3.48936C8.95705 3.2494 8.80614 2.96945 8.61247 2.64951C8.33076 2.24459 8.18991 1.91465 8.18991 1.65969C8.18991 1.56721 8.22009 1.39474 8.28046 1.13979C8.40622 0.734865 8.68541 0.444918 9.11551 0.26995C9.54309 0.0899834 10.2021 0 11.0874 0H26.8527ZM25.6153 10.0781C25.9624 8.91336 26.1384 7.88855 26.1384 7.00871C26.1384 5.17655 25.2782 4.25921 23.5628 4.25921H21.4199L18.0395 15.9471H20.1321C21.4652 15.9471 22.5517 15.5321 23.3918 14.6973C24.2369 13.8574 24.9764 12.3177 25.6153 10.0781Z" fill="#F8F8F8"/>
<path d="M50.694 6.48868C54.3486 6.48868 57.2687 7.15855 59.457 8.49831C61.6502 9.83806 62.7469 11.8827 62.7469 14.6272C62.7469 15.667 62.5557 16.8518 62.1734 18.1765L60.2216 24.7053C60.1864 24.8328 60.1713 24.9903 60.1713 25.1752C60.1713 25.6826 60.3775 25.9351 60.7951 25.9351C61.1698 25.9351 61.4918 25.7701 61.7609 25.4352C62.0351 25.1027 62.2187 24.9353 62.3142 24.9353C62.4752 24.9353 62.6085 25.0503 62.7167 25.2752C62.8299 25.4952 62.8877 25.7451 62.8877 26.0251C62.9129 26.8799 62.5859 27.7498 61.9017 28.6346C61.2226 29.5144 60.3121 30.2393 59.1652 30.8042C58.0233 31.3716 56.7732 31.654 55.4125 31.654C53.7625 31.654 52.349 31.3541 51.1769 30.7542C50.0023 30.1543 49.1899 29.272 48.7422 28.1047C47.7889 29.2445 46.6621 30.1218 45.3618 30.7342C44.0589 31.3491 42.6655 31.654 41.1765 31.654C39.4913 31.654 38.0777 31.3316 36.9308 30.6842C35.7889 30.0393 34.9413 29.2045 34.3854 28.1847C33.8346 27.1599 33.5604 26.0751 33.5604 24.9353C33.5604 24.4354 33.6082 23.9505 33.7013 23.4755C34.2093 21.2959 35.3135 19.6562 37.0113 18.5565C38.7065 17.4517 40.7287 16.8968 43.0779 16.8968C45.7139 16.8968 48.302 17.3067 50.8449 18.1265L52.0321 15.0071C52.4395 13.6824 52.6458 12.655 52.6458 11.9277C52.6181 11.1678 52.3666 10.6029 51.8912 10.228C51.4133 9.84806 50.6839 9.65809 49.698 9.65809C49.8841 10.1655 49.9797 10.6854 49.9797 11.2178C49.9797 12.3851 49.532 13.3949 48.6416 14.2472C47.7562 15.1021 46.4886 15.527 44.8386 15.527C43.2817 15.527 42.0668 15.1871 41.1966 14.5072C40.3238 13.8273 39.8887 12.985 39.8887 11.9777C39.8887 10.398 40.7765 9.0882 42.5548 8.04839C44.3305 7.00858 47.0444 6.48868 50.694 6.48868ZM48.0279 20.826C47.1425 20.826 46.4207 21.166 45.8648 21.8458C45.3064 22.5207 45.0297 23.2506 45.0297 24.0354C45.0297 24.5428 45.1454 24.9553 45.3819 25.2752C45.6233 25.5902 45.9654 25.7451 46.4081 25.7451C46.8231 25.7451 47.2758 25.5802 47.7663 25.2452C48.2618 24.9128 48.6215 24.4154 48.8428 23.7555L49.8388 20.966C49.3006 20.8735 48.6969 20.826 48.0279 20.826Z" fill="#F8F8F8"/>
<path d="M94.3026 24.9853C94.2422 25.1127 94.212 25.3027 94.212 25.5552C94.212 25.7751 94.2648 25.9501 94.373 26.0751C94.4862 26.2025 94.6371 26.265 94.8257 26.265C95.2081 26.265 95.5325 26.1001 95.8016 25.7651C96.0683 25.4327 96.2544 25.2652 96.355 25.2652C96.5084 25.2652 96.6317 25.3702 96.7272 25.5752C96.8279 25.7826 96.8782 26.0251 96.8782 26.305C96.9033 27.2249 96.599 28.1197 95.9626 28.9845C95.3313 29.8519 94.4057 30.5617 93.1858 31.1141C91.9634 31.6665 90.4946 31.944 88.7792 31.944C86.6865 31.944 85.019 31.4641 83.779 30.5043C82.544 29.5394 81.9102 28.2522 81.8775 26.645C81.8775 25.4802 82.1617 24.1704 82.7326 22.7157L85.3484 15.8969C85.5094 15.492 85.5899 15.1621 85.5899 14.9071C85.5899 14.5022 85.4541 14.1823 85.1875 13.9473C84.9184 13.7073 84.5939 13.5874 84.2116 13.5874C83.5123 13.5874 82.8458 13.9123 82.2095 14.5572C81.5782 15.2046 81.1179 16.0019 80.8311 16.9468L77.8833 26.595C77.755 26.9424 77.6922 27.2723 77.6922 27.5848C77.6922 27.9647 77.7676 28.2747 77.9236 28.5146C78.0845 28.7496 78.3084 28.992 78.5976 29.2445C78.819 29.4319 78.9749 29.6044 79.0705 29.7644C79.1636 29.9244 79.1812 30.1143 79.1208 30.3343C78.9925 30.7417 78.6907 31.0417 78.2153 31.2341C77.7374 31.4216 76.9904 31.5141 75.9718 31.5141H65.1161C64.2911 31.5141 63.6976 31.3816 63.3354 31.1141C62.9732 30.8492 62.8399 30.4918 62.9329 30.0443C63.0612 29.6719 63.3932 29.342 63.929 29.0545C64.4068 28.8021 64.8017 28.5021 65.1161 28.1547C65.4381 27.8097 65.7097 27.2549 65.9311 26.495L70.1667 12.8275C70.227 12.6675 70.2572 12.4476 70.2572 12.1676C70.2572 11.8227 70.1868 11.5552 70.0459 11.3678C69.9051 11.1753 69.6762 10.9354 69.3618 10.6479C69.0399 10.3955 68.8135 10.1755 68.6877 9.98803C68.5595 9.80307 68.5469 9.54811 68.6475 9.22817C68.8336 8.50331 69.8296 7.86592 71.6356 7.31852C73.4465 6.76613 75.3379 6.48868 77.3099 6.48868C78.8919 6.48868 80.142 6.9236 81.0625 7.78844C81.9881 8.65578 82.4031 9.86306 82.3101 11.4078C83.6104 9.54811 84.9888 8.26585 86.4451 7.55848C87.9064 6.84611 89.496 6.48868 91.2139 6.48868C93.1456 6.48868 94.705 7.07357 95.8922 8.23836C97.0844 9.40564 97.683 10.9179 97.683 12.7775C97.683 13.7573 97.5246 14.7222 97.2102 15.667L94.3026 24.9853Z" fill="#F8F8F8"/>
<path d="M120.198 7.09863C120.801 7.09863 121.267 7.22611 121.596 7.47856C121.931 7.73352 122.099 8.07845 122.099 8.51837C122.099 8.64585 122.069 8.86581 122.009 9.17825C121.599 10.573 120.645 11.2679 119.151 11.2679H116.395L112.823 22.9557C112.662 23.4231 112.582 23.9105 112.582 24.4154C112.582 24.9828 112.738 25.3803 113.054 25.6052C113.376 25.8252 113.822 25.9352 114.393 25.9352C114.901 25.9352 115.534 25.8727 116.294 25.7452C116.676 25.6527 117.011 25.6052 117.3 25.6052C117.521 25.6052 117.685 25.6752 117.793 25.8152C117.906 25.9552 117.964 26.1351 117.964 26.3551C117.997 26.99 117.526 27.7548 116.556 28.6547C115.59 29.5545 114.282 30.3294 112.632 30.9742C110.982 31.6191 109.156 31.9441 107.159 31.9441C104.998 31.9441 103.268 31.4541 101.967 30.4743C100.665 29.4945 100.016 28.1548 100.016 26.4551C100.016 25.6627 100.141 24.9054 100.398 24.1855L103.446 14.8172C103.6 14.2773 103.678 13.8524 103.678 13.5374C103.678 12.9051 103.527 12.3677 103.225 11.9277C102.923 11.4878 102.503 11.0329 101.967 10.558C101.49 10.1131 101.155 9.74315 100.961 9.4482C100.773 9.14826 100.725 8.79332 100.821 8.3784C100.946 7.97347 101.215 7.65853 101.625 7.43857C102.04 7.21361 102.694 7.09863 103.587 7.09863H106.253L109.251 4.11918C110.298 3.07937 111.256 2.35701 112.129 1.94958C112.999 1.53716 114.133 1.3297 115.529 1.3297C117.534 1.3297 118.538 2.08706 118.538 3.59928C118.538 4.07419 118.472 4.51661 118.346 4.92903L117.672 7.09863H120.198Z" fill="#F8F8F8"/>
<path d="M142.76 6.48868C144.536 6.48868 145.954 7.02608 147.016 8.09838C148.082 9.17318 148.616 10.4954 148.616 12.0676C148.616 12.6675 148.555 13.2224 148.434 13.7273C148.112 15.0221 147.504 16.0144 146.613 16.7068C145.728 17.4017 144.667 17.7466 143.434 17.7466C142.227 17.7466 141.311 17.4642 140.688 16.8968C140.069 16.3319 139.523 15.5745 139.048 14.6272C138.791 14.0873 138.555 13.6948 138.333 13.4474C138.112 13.1949 137.861 13.0675 137.579 13.0675C137.257 13.0675 136.975 13.1949 136.734 13.4474C136.497 13.6948 136.286 14.1348 136.1 14.7672L132.438 26.595C132.37 26.7549 132.337 26.9924 132.337 27.3048C132.337 27.7123 132.453 28.0522 132.689 28.3247C132.931 28.5921 133.258 28.8521 133.675 29.1045C134.05 29.3595 134.301 29.5644 134.43 29.7244C134.556 29.8794 134.606 30.0818 134.581 30.3343C134.513 30.7417 134.281 31.0417 133.886 31.2341C133.489 31.4216 132.815 31.5141 131.864 31.5141H119.671C118.846 31.5141 118.252 31.3816 117.89 31.1141C117.528 30.8492 117.394 30.4918 117.487 30.0443C117.616 29.6719 117.948 29.342 118.483 29.0545C118.961 28.8021 119.356 28.5021 119.671 28.1547C119.992 27.8097 120.264 27.2548 120.485 26.495L124.721 12.8275C124.781 12.6675 124.812 12.4476 124.812 12.1676C124.812 11.8227 124.741 11.5552 124.6 11.3678C124.459 11.1753 124.231 10.9354 123.916 10.6479C123.594 10.3955 123.368 10.1755 123.242 9.98803C123.114 9.80307 123.101 9.54811 123.202 9.22817C123.388 8.50331 124.384 7.86592 126.19 7.31852C128.001 6.76613 129.892 6.48868 131.864 6.48868C133.165 6.48868 134.241 6.78362 135.094 7.36852C135.951 7.94841 136.507 8.77576 136.764 9.84806C138.286 7.60847 140.285 6.48868 142.76 6.48868Z" fill="#F8F8F8"/>
<path d="M172.184 6.48862C173.578 6.48862 174.694 7.04852 175.535 8.16831C176.38 9.28811 176.802 10.8078 176.802 12.7275C176.802 14.4022 176.5 16.2018 175.897 18.1265C174.722 22.0058 172.841 25.6651 170.253 29.1045C167.669 32.5363 164.702 35.2933 161.349 37.3729C158.001 39.4575 154.661 40.5024 151.328 40.5024C149.678 40.5024 148.255 40.2174 147.062 39.6525C145.875 39.0851 144.975 38.3278 144.356 37.3829C143.74 36.4356 143.43 35.4258 143.43 34.3535C143.43 33.8786 143.508 33.3587 143.662 32.7938C143.951 31.9064 144.431 31.2291 145.101 30.7542C145.765 30.2817 146.557 30.0443 147.475 30.0443C148.936 30.0443 150.133 30.5417 151.067 31.534C152.005 32.5263 152.601 33.8936 152.857 35.6333C154.89 35.5333 156.761 34.6634 158.471 33.0237C156.854 32.7438 155.657 32.2039 154.88 31.404C154.1 30.5992 153.567 29.3419 153.28 27.6347L151.378 16.0469C151.283 15.447 151.15 15.032 150.976 14.7971C150.8 14.5571 150.569 14.4372 150.282 14.4372C150.06 14.4372 149.799 14.5471 149.497 14.7671C149.195 14.9871 148.979 15.097 148.853 15.097C148.597 15.097 148.471 14.8321 148.471 14.2972C148.471 13.8523 148.551 13.3774 148.712 12.8774C149.281 11.0778 150.345 9.55556 151.902 8.30829C153.456 7.06352 155.267 6.43863 157.334 6.43863C159.359 6.43863 160.856 7.03852 161.822 8.2383C162.792 9.43808 163.424 11.2852 163.713 13.7773L165.142 24.1854C165.235 24.9727 165.519 25.3651 165.997 25.3651C166.565 25.3651 167.229 24.8527 167.989 23.8254C168.753 22.8006 169.501 21.3409 170.232 19.4462C169.279 18.6014 168.547 17.6241 168.039 16.5168C167.536 15.412 167.285 14.2272 167.285 12.9674C167.285 11.9876 167.408 11.1053 167.657 10.3179C168.039 9.05815 168.635 8.10583 169.448 7.45844C170.258 6.81356 171.171 6.48862 172.184 6.48862Z" fill="#F8F8F8"/>
<path d="M71.3403 74.8393C71.5038 74.8343 71.6295 76.4265 71.6522 76.8465C71.8559 80.5308 71.4032 84.2801 69.8186 88.3668C74.4164 90.224 80.053 90.4914 85.0356 90.1315C86.5095 90.024 88.0237 89.8666 89.5806 89.6941C94.8449 89.1042 99.1434 88.9967 104.488 89.3791C104.488 89.3791 104.488 89.3791 104.486 89.3766C101.737 83.8052 101.322 79.446 102.858 73.4421C96.183 74.4644 87.5332 76.6565 80.7648 76.0441C77.5604 75.7542 73.853 74.6843 71.4007 73.1346C70.5882 72.6197 70.6562 72.5247 71.5491 72.8322C74.678 73.902 77.0926 74.6743 80.8478 74.8268C84.1729 74.9618 87.4074 74.4619 90.7602 73.877C95.2549 73.0897 99.1157 72.7522 103.714 72.6697C103.198 77.5938 103.973 85.2724 105.421 90.014C105.421 90.014 105.421 90.014 105.424 90.0165C98.6604 90.4115 91.8266 91.5862 85.1563 91.9637C78.9463 92.3136 74.4415 91.8062 68.8528 88.7693C70.0651 84.7975 70.8046 80.2783 71.0863 76.8415C71.1215 76.4165 71.2095 74.8443 71.3403 74.8393Z" fill="#F8F8F8"/>
<path d="M103.173 72.2824C103.14 72.2699 103.127 72.2049 103.138 72.0949C103.15 71.9824 103.185 71.82 103.261 71.62C103.334 71.415 103.449 71.1726 103.615 70.9026C103.784 70.6302 104.008 70.3302 104.305 70.0328C104.74 69.6054 105.313 69.1954 105.995 68.823C106.334 68.6355 106.699 68.4606 107.081 68.2856C107.461 68.1081 107.859 67.9332 108.253 67.7482C108.862 67.4508 109.501 67.0958 110.137 66.6759C110.776 66.2535 111.415 65.7686 112.026 65.2112C112.637 64.6513 113.216 64.0189 113.724 63.3115C114.232 62.6016 114.67 61.8168 114.984 60.952C115.512 59.5372 115.734 57.9175 115.434 56.3478C115.158 54.8881 114.433 53.4383 113.294 52.401C113.037 52.1636 112.758 51.9436 112.459 51.7461C111.503 51.1138 110.386 50.7138 109.257 50.5039C107.69 50.2164 106.07 50.3189 104.528 50.5764C103.636 50.7288 102.763 50.9413 101.913 51.1763C101.062 51.4137 100.232 51.6737 99.4201 51.9286C98.6051 52.1861 97.8129 52.4385 97.0357 52.6635C96.2585 52.8909 95.5014 53.0909 94.7669 53.2584C93.2477 53.5958 91.8443 53.7708 90.6093 53.8433C89.3743 53.9132 88.3079 53.8883 87.4376 53.8183C86.5699 53.7508 85.8983 53.6408 85.4481 53.5358C85.0004 53.4308 84.769 53.3309 84.7765 53.2584C84.7841 53.1834 85.0281 53.1359 85.4808 53.1009C85.9361 53.0659 86.5975 53.0384 87.4427 52.9784C88.2878 52.9209 89.3115 52.8284 90.4835 52.651C91.6556 52.4735 92.9761 52.2086 94.3897 51.8011C95.0763 51.6037 95.7881 51.3712 96.5326 51.1138C97.2771 50.8538 98.0493 50.5714 98.8567 50.2814C99.664 49.9915 100.507 49.6965 101.392 49.4241C102.277 49.1516 103.203 48.9017 104.179 48.7067C105.867 48.3718 107.715 48.2368 109.602 48.5517C110.972 48.7792 112.351 49.2741 113.576 50.0865C113.958 50.3414 114.323 50.6264 114.665 50.9363C116.154 52.321 117.059 54.1557 117.371 56.0104C117.537 57.0002 117.542 57.9875 117.421 58.9323C117.298 59.8772 117.049 60.7845 116.702 61.6193C116.279 62.6341 115.731 63.5365 115.112 64.3338C114.496 65.1312 113.807 65.8211 113.093 66.4159C112.381 67.0108 111.641 67.5082 110.912 67.9232C110.18 68.3381 109.458 68.6705 108.772 68.933C108.336 69.1054 107.921 69.2479 107.534 69.3829C107.144 69.5179 106.782 69.6479 106.453 69.7778C105.791 70.0428 105.258 70.3252 104.835 70.6377C104.546 70.8476 104.305 71.0701 104.106 71.2726C103.91 71.4775 103.751 71.665 103.625 71.8199C103.376 72.1299 103.241 72.3099 103.173 72.2824Z" fill="#F8F8F8"/>
<path d="M93.5772 51.5363C93.5445 51.7013 92.7296 51.6938 91.316 51.6088C89.9 51.5238 87.8878 51.3688 85.4531 51.2913C83.8735 51.2413 82.1154 51.2214 80.2617 51.3388C78.408 51.4563 76.4587 51.7113 74.522 52.2587C74.2906 52.3237 74.0592 52.3936 73.8303 52.4661C72.789 52.8011 71.788 53.2185 70.8624 53.6959C69.9393 54.1733 69.0867 54.7132 68.3296 55.2956C67.57 55.8755 66.9035 56.4979 66.335 57.1403C65.7666 57.7801 65.2962 58.44 64.9114 59.0974C64.4285 59.9123 64.0814 60.7121 63.8299 61.442C63.5758 62.1668 63.4174 62.8217 63.2992 63.3641C63.1835 63.9065 63.1105 64.3389 63.0476 64.6364C62.9797 64.9338 62.9169 65.0938 62.8414 65.0988C62.7659 65.1038 62.6804 64.9488 62.6075 64.6414C62.532 64.3339 62.4666 63.879 62.4591 63.2841C62.4515 62.6917 62.4993 61.9619 62.6628 61.132C62.8288 60.3022 63.1105 59.3699 63.5708 58.4C63.9431 57.6252 64.4235 56.8353 65.0196 56.068C65.6157 55.3006 66.3275 54.5532 67.1499 53.8584C67.9724 53.1635 68.9056 52.5211 69.9242 51.9612C70.9454 51.4038 72.0546 50.9289 73.2166 50.5615C73.4656 50.484 73.7222 50.409 73.9762 50.3365C76.1041 49.7466 78.2068 49.4992 80.1712 49.4367C82.133 49.3742 83.9566 49.4917 85.5663 49.6666C88.0488 49.9316 90.0735 50.3315 91.4619 50.694C92.8528 51.0539 93.6099 51.3738 93.5772 51.5363Z" fill="#F8F8F8"/>
<path d="M62.7735 59.5426C62.8037 59.6076 62.6855 59.7325 62.444 59.92C62.2026 60.1075 61.8379 60.3549 61.3776 60.6774C60.9173 60.9973 60.3639 61.3972 59.7502 61.8871C59.139 62.3796 58.47 62.9669 57.7884 63.6618C57.1696 64.3017 56.5358 65.0341 55.9799 65.8614C55.4191 66.6913 54.9361 67.6211 54.6595 68.6509C54.4155 69.5332 54.3073 70.4881 54.4331 71.4254C54.5513 72.3052 54.8607 73.1876 55.3939 73.9149C55.6178 74.2349 55.8869 74.5273 56.1963 74.7873C57.0841 75.5396 58.2336 76.0045 59.3654 76.1845C60.2105 76.3195 61.0682 76.2895 61.8957 76.157C62.7257 76.027 63.523 75.7921 64.2675 75.5046C65.7213 74.9372 66.9563 74.1374 67.9548 73.305C68.9534 72.4752 69.718 71.6079 70.2965 70.8505C70.875 70.0931 71.2724 69.4433 71.5566 68.9958C71.8408 68.5509 72.0169 68.3085 72.1074 68.341C72.2005 68.3735 72.2055 68.6759 72.0747 69.2108C71.9465 69.7457 71.6824 70.5106 71.1919 71.4179C70.7039 72.3202 69.9821 73.365 68.9584 74.3848C67.9347 75.4047 66.6067 76.3995 64.9718 77.1393C64.1393 77.5218 63.2162 77.8317 62.2252 78.0192C61.2367 78.2041 60.1803 78.2641 59.0913 78.1267C57.6123 77.9442 56.1057 77.3418 54.8883 76.297C54.4658 75.9346 54.0835 75.5246 53.7565 75.0722C53.0145 74.0249 52.602 72.8276 52.4813 71.6503C52.3505 70.4031 52.519 69.1958 52.8712 68.116C53.2836 66.8662 53.9049 65.7964 54.5941 64.8841C55.2857 63.9743 56.0479 63.2194 56.7823 62.5995C57.5846 61.9146 58.3669 61.3697 59.0812 60.9398C59.7955 60.5099 60.4444 60.1925 60.9827 59.9675C61.526 59.7425 61.9611 59.6076 62.2654 59.5401C62.5723 59.4726 62.7458 59.4776 62.7735 59.5426Z" fill="#F8F8F8"/>
<path d="M99.4955 70.6051C99.3798 70.5976 99.2792 70.4427 99.2012 70.1577C99.1207 69.8728 99.0654 69.4579 99.0553 68.938C99.0377 67.8957 99.2088 66.4259 99.737 64.8112C99.9583 64.1363 100.237 63.4415 100.582 62.7491C101.083 61.7443 101.669 60.8419 102.267 60.0796C102.868 59.3172 103.482 58.6898 104.04 58.2149C104.599 57.7375 105.094 57.4101 105.472 57.2251C105.846 57.0401 106.1 56.9977 106.193 57.1026C106.284 57.2051 106.206 57.4451 106.005 57.7925C105.806 58.1424 105.484 58.6024 105.097 59.1623C104.71 59.7222 104.257 60.3845 103.789 61.1369C103.324 61.8868 102.843 62.7266 102.39 63.6339C102.081 64.2588 101.802 64.8762 101.56 65.4686C100.972 66.8933 100.575 68.1831 100.268 69.1129C100.114 69.5778 99.9809 69.9553 99.8552 70.2127C99.7294 70.4702 99.6112 70.6126 99.4955 70.6051Z" fill="#F8F8F8"/>
<path d="M93.0289 71.4601C92.9132 71.4826 92.7724 71.3602 92.6189 71.1052C92.4655 70.8503 92.302 70.4628 92.1536 69.9604C92.0077 69.458 91.8795 68.8406 91.8015 68.1358C91.7235 67.4309 91.6984 66.6335 91.7512 65.7862C91.7939 65.1263 91.8845 64.4364 92.0304 63.7341C92.2542 62.6543 92.5887 61.6545 92.9736 60.7821C93.3584 59.9098 93.7935 59.1674 94.2111 58.58C94.6286 57.9951 95.026 57.5652 95.3429 57.3003C95.6573 57.0378 95.8912 56.9403 96.0044 57.0178C96.1201 57.0978 96.105 57.3452 95.9994 57.7252C95.8937 58.1051 95.7026 58.62 95.4712 59.2449C95.2398 59.8698 94.9706 60.6071 94.7116 61.432C94.4525 62.2543 94.206 63.1692 94.0048 64.1365C93.874 64.7689 93.7709 65.3838 93.6904 65.9712C93.4867 67.4909 93.4364 68.8356 93.3836 69.813C93.3559 70.3054 93.3257 70.7028 93.2729 70.9852C93.2201 71.2677 93.1421 71.4352 93.0289 71.4601Z" fill="#F8F8F8"/>
<path d="M75.7821 71.72C75.5532 71.675 75.4274 71.2725 75.3294 70.6677C75.2313 70.0628 75.1508 69.2479 75.0024 68.3381C74.947 67.9831 74.8791 67.6132 74.8012 67.2358C74.5572 66.0685 74.2378 65.0287 74.0164 64.2363C73.9057 63.8414 73.8228 63.504 73.7976 63.2465C73.7724 62.9866 73.8026 62.8041 73.9158 62.7241C74.029 62.6466 74.2151 62.6791 74.4541 62.8191C74.6905 62.9616 74.9772 63.2115 75.274 63.569C75.5683 63.9264 75.8726 64.3913 76.1393 64.9412C76.4034 65.4961 76.6297 66.136 76.7731 66.8284C76.8687 67.2808 76.924 67.7257 76.9416 68.1506C76.9894 69.2429 76.8058 70.1852 76.5568 70.8151C76.4335 71.1301 76.2952 71.37 76.1594 71.5225C76.0236 71.6775 75.8953 71.7449 75.7821 71.72Z" fill="#F8F8F8"/>
<path d="M83.5038 71.0228C83.3931 70.9953 83.3227 70.8253 83.2799 70.5429C83.2372 70.2579 83.2221 69.8605 83.2045 69.3731C83.1743 68.3982 83.1416 67.0585 82.9127 65.5538C82.8172 64.9289 82.6889 64.2765 82.5204 63.6091C82.2739 62.6393 81.967 61.732 81.6451 60.9196C81.3206 60.1048 80.9836 59.3849 80.6868 58.78C80.3875 58.1701 80.1334 57.6752 79.98 57.3053C79.8291 56.9354 79.7788 56.6904 79.8819 56.5954C79.985 56.5054 80.234 56.5754 80.5862 56.8079C80.9358 57.0428 81.3885 57.4378 81.8714 57.9952C82.3569 58.5551 82.87 59.2774 83.3303 60.1448C83.7905 61.0121 84.1955 62.0219 84.4747 63.1217C84.6658 63.8791 84.7866 64.6289 84.8394 65.3413C84.9073 66.1987 84.8821 67.0035 84.7991 67.7159C84.7161 68.4257 84.5753 69.0456 84.4168 69.5455C84.2609 70.0479 84.0848 70.4304 83.9213 70.6828C83.7604 70.9328 83.617 71.0503 83.5038 71.0228Z" fill="#F8F8F8"/>
</svg>
